<mxfile host="Electron" agent="Mozilla/5.0 (Windows NT 10.0; WOW64) AppleWebKit/537.36 (KHTML, like Gecko) draw.io/24.7.5 Chrome/126.0.6478.183 Electron/31.3.0 Safari/537.36" version="24.7.5">
  <diagram name="Страница — 1" id="I9Z1L919ukLN-PUytdVg">
    <mxGraphModel dx="2048" dy="841" grid="1" gridSize="10" guides="1" tooltips="1" connect="1" arrows="1" fold="1" page="1" pageScale="1" pageWidth="827" pageHeight="1169" math="0" shadow="0">
      <root>
        <mxCell id="0" />
        <mxCell id="1" parent="0" />
        <mxCell id="0P3grilKNkKzjPYkAv3P-7" value="" style="rounded=0;whiteSpace=wrap;html=1;fillColor=none;" parent="1" vertex="1">
          <mxGeometry x="-520" y="710" width="510" height="340" as="geometry" />
        </mxCell>
        <mxCell id="0P3grilKNkKzjPYkAv3P-3" value="" style="rounded=0;whiteSpace=wrap;html=1;fillColor=none;" parent="1" vertex="1">
          <mxGeometry x="-480" y="1790" width="600" height="170" as="geometry" />
        </mxCell>
        <mxCell id="OZ5fW6hErYmCuCrI8Dng-1" value="&lt;font style=&quot;font-size: 16px;&quot;&gt;Actor&lt;/font&gt;" style="shape=umlActor;verticalLabelPosition=bottom;verticalAlign=top;html=1;outlineConnect=0;" parent="1" vertex="1">
          <mxGeometry x="140" y="480" width="30" height="60" as="geometry" />
        </mxCell>
        <mxCell id="OZ5fW6hErYmCuCrI8Dng-3" value="Set location" style="ellipse;whiteSpace=wrap;html=1;" parent="1" vertex="1">
          <mxGeometry x="350" y="1090" width="120" height="80" as="geometry" />
        </mxCell>
        <mxCell id="OZ5fW6hErYmCuCrI8Dng-5" value="Add favourites location" style="ellipse;whiteSpace=wrap;html=1;" parent="1" vertex="1">
          <mxGeometry x="-370" y="60" width="120" height="80" as="geometry" />
        </mxCell>
        <mxCell id="OZ5fW6hErYmCuCrI8Dng-6" value="Delete favourites location" style="ellipse;whiteSpace=wrap;html=1;" parent="1" vertex="1">
          <mxGeometry x="-270" y="150" width="120" height="80" as="geometry" />
        </mxCell>
        <mxCell id="OZ5fW6hErYmCuCrI8Dng-7" value="Search Location`s Weather" style="ellipse;whiteSpace=wrap;html=1;" parent="1" vertex="1">
          <mxGeometry x="-390" y="270" width="120" height="80" as="geometry" />
        </mxCell>
        <mxCell id="OZ5fW6hErYmCuCrI8Dng-10" value="Get Weather Forecast" style="ellipse;whiteSpace=wrap;html=1;" parent="1" vertex="1">
          <mxGeometry x="-480" y="380" width="120" height="80" as="geometry" />
        </mxCell>
        <mxCell id="OZ5fW6hErYmCuCrI8Dng-11" value="Hourly Forecast" style="ellipse;whiteSpace=wrap;html=1;" parent="1" vertex="1">
          <mxGeometry x="-640" y="470" width="120" height="80" as="geometry" />
        </mxCell>
        <mxCell id="OZ5fW6hErYmCuCrI8Dng-12" value="7 Day Forecast" style="ellipse;whiteSpace=wrap;html=1;" parent="1" vertex="1">
          <mxGeometry x="-580" y="544.5" width="120" height="80" as="geometry" />
        </mxCell>
        <mxCell id="OZ5fW6hErYmCuCrI8Dng-13" value="Detailed Forecast" style="ellipse;whiteSpace=wrap;html=1;" parent="1" vertex="1">
          <mxGeometry x="-360" y="505" width="120" height="80" as="geometry" />
        </mxCell>
        <mxCell id="OZ5fW6hErYmCuCrI8Dng-15" value="Configure Settings" style="ellipse;whiteSpace=wrap;html=1;" parent="1" vertex="1">
          <mxGeometry x="210" y="750" width="120" height="80" as="geometry" />
        </mxCell>
        <mxCell id="OZ5fW6hErYmCuCrI8Dng-17" value="" style="endArrow=none;html=1;rounded=0;exitX=0;exitY=0.3333333333333333;exitDx=0;exitDy=0;exitPerimeter=0;entryX=1;entryY=0.5;entryDx=0;entryDy=0;endFill=0;" parent="1" source="OZ5fW6hErYmCuCrI8Dng-1" target="OZ5fW6hErYmCuCrI8Dng-10" edge="1">
          <mxGeometry width="50" height="50" relative="1" as="geometry">
            <mxPoint x="370" y="360" as="sourcePoint" />
            <mxPoint x="420" y="310" as="targetPoint" />
          </mxGeometry>
        </mxCell>
        <mxCell id="OZ5fW6hErYmCuCrI8Dng-28" value="" style="endArrow=none;html=1;rounded=0;dashed=1;entryX=0;entryY=1;entryDx=0;entryDy=0;exitX=0.5;exitY=0;exitDx=0;exitDy=0;startArrow=classic;startFill=1;endFill=0;" parent="1" source="OZ5fW6hErYmCuCrI8Dng-60" target="OZ5fW6hErYmCuCrI8Dng-15" edge="1">
          <mxGeometry width="50" height="50" relative="1" as="geometry">
            <mxPoint x="790" y="600" as="sourcePoint" />
            <mxPoint x="810" y="680" as="targetPoint" />
            <Array as="points" />
          </mxGeometry>
        </mxCell>
        <mxCell id="OZ5fW6hErYmCuCrI8Dng-37" value="&lt;span style=&quot;font-size: 11px;&quot;&gt;&amp;lt;&amp;lt;Includes&amp;gt;&amp;gt;&lt;/span&gt;" style="edgeLabel;html=1;align=center;verticalAlign=middle;resizable=0;points=[];fontSize=11;" parent="OZ5fW6hErYmCuCrI8Dng-28" vertex="1" connectable="0">
          <mxGeometry x="-0.0333" y="3" relative="1" as="geometry">
            <mxPoint as="offset" />
          </mxGeometry>
        </mxCell>
        <mxCell id="OZ5fW6hErYmCuCrI8Dng-29" value="" style="endArrow=classic;html=1;rounded=0;dashed=1;exitX=0.5;exitY=0;exitDx=0;exitDy=0;entryX=0;entryY=1;entryDx=0;entryDy=0;" parent="1" source="OZ5fW6hErYmCuCrI8Dng-11" target="OZ5fW6hErYmCuCrI8Dng-10" edge="1">
          <mxGeometry width="50" height="50" relative="1" as="geometry">
            <mxPoint x="510" y="690" as="sourcePoint" />
            <mxPoint x="680" y="730" as="targetPoint" />
            <Array as="points" />
          </mxGeometry>
        </mxCell>
        <mxCell id="OZ5fW6hErYmCuCrI8Dng-32" value="&lt;font style=&quot;font-size: 11px;&quot;&gt;&amp;lt;&amp;lt;Extend&amp;gt;&amp;gt;&lt;/font&gt;" style="edgeLabel;html=1;align=center;verticalAlign=middle;resizable=0;points=[];fontSize=11;" parent="OZ5fW6hErYmCuCrI8Dng-29" vertex="1" connectable="0">
          <mxGeometry x="-0.4522" y="-1" relative="1" as="geometry">
            <mxPoint as="offset" />
          </mxGeometry>
        </mxCell>
        <mxCell id="OZ5fW6hErYmCuCrI8Dng-30" value="" style="endArrow=classic;html=1;rounded=0;dashed=1;exitX=0.5;exitY=0;exitDx=0;exitDy=0;entryX=0.371;entryY=0.986;entryDx=0;entryDy=0;entryPerimeter=0;" parent="1" source="OZ5fW6hErYmCuCrI8Dng-12" target="OZ5fW6hErYmCuCrI8Dng-10" edge="1">
          <mxGeometry width="50" height="50" relative="1" as="geometry">
            <mxPoint x="710" y="360" as="sourcePoint" />
            <mxPoint x="668" y="238" as="targetPoint" />
            <Array as="points" />
          </mxGeometry>
        </mxCell>
        <mxCell id="OZ5fW6hErYmCuCrI8Dng-33" value="&lt;span style=&quot;font-size: 11px;&quot;&gt;&amp;lt;&amp;lt;Extend&amp;gt;&amp;gt;&lt;/span&gt;" style="edgeLabel;html=1;align=center;verticalAlign=middle;resizable=0;points=[];fontSize=11;" parent="OZ5fW6hErYmCuCrI8Dng-30" vertex="1" connectable="0">
          <mxGeometry x="-0.2644" y="-2" relative="1" as="geometry">
            <mxPoint as="offset" />
          </mxGeometry>
        </mxCell>
        <mxCell id="OZ5fW6hErYmCuCrI8Dng-31" value="" style="endArrow=classic;html=1;rounded=0;dashed=1;exitX=0.5;exitY=0;exitDx=0;exitDy=0;entryX=1;entryY=1;entryDx=0;entryDy=0;" parent="1" source="OZ5fW6hErYmCuCrI8Dng-13" target="OZ5fW6hErYmCuCrI8Dng-10" edge="1">
          <mxGeometry width="50" height="50" relative="1" as="geometry">
            <mxPoint x="870" y="360" as="sourcePoint" />
            <mxPoint x="719" y="250" as="targetPoint" />
            <Array as="points" />
          </mxGeometry>
        </mxCell>
        <mxCell id="OZ5fW6hErYmCuCrI8Dng-34" value="&lt;span style=&quot;font-size: 11px;&quot;&gt;&amp;lt;&amp;lt;Extend&amp;gt;&amp;gt;&lt;/span&gt;" style="edgeLabel;html=1;align=center;verticalAlign=middle;resizable=0;points=[];fontSize=11;" parent="OZ5fW6hErYmCuCrI8Dng-31" vertex="1" connectable="0">
          <mxGeometry x="-0.2167" y="-4" relative="1" as="geometry">
            <mxPoint y="-1" as="offset" />
          </mxGeometry>
        </mxCell>
        <mxCell id="OZ5fW6hErYmCuCrI8Dng-46" value="Sign up" style="ellipse;whiteSpace=wrap;html=1;" parent="1" vertex="1">
          <mxGeometry x="-414" y="730" width="120" height="80" as="geometry" />
        </mxCell>
        <mxCell id="OZ5fW6hErYmCuCrI8Dng-47" value="Account" style="text;html=1;align=center;verticalAlign=middle;whiteSpace=wrap;rounded=0;" parent="1" vertex="1">
          <mxGeometry x="-510" y="720" width="90" height="30" as="geometry" />
        </mxCell>
        <mxCell id="OZ5fW6hErYmCuCrI8Dng-49" value="Log in" style="ellipse;whiteSpace=wrap;html=1;" parent="1" vertex="1">
          <mxGeometry x="-200" y="720" width="120" height="80" as="geometry" />
        </mxCell>
        <mxCell id="OZ5fW6hErYmCuCrI8Dng-50" value="Log out" style="ellipse;whiteSpace=wrap;html=1;" parent="1" vertex="1">
          <mxGeometry x="-200" y="820" width="120" height="80" as="geometry" />
        </mxCell>
        <mxCell id="OZ5fW6hErYmCuCrI8Dng-53" value="" style="endArrow=none;html=1;rounded=0;entryX=0;entryY=0.3333333333333333;entryDx=0;entryDy=0;entryPerimeter=0;exitX=1;exitY=0.5;exitDx=0;exitDy=0;" parent="1" source="OZ5fW6hErYmCuCrI8Dng-49" target="OZ5fW6hErYmCuCrI8Dng-1" edge="1">
          <mxGeometry width="50" height="50" relative="1" as="geometry">
            <mxPoint x="-30" y="850" as="sourcePoint" />
            <mxPoint x="130.00000000000023" y="600" as="targetPoint" />
          </mxGeometry>
        </mxCell>
        <mxCell id="OZ5fW6hErYmCuCrI8Dng-54" value="" style="endArrow=none;html=1;rounded=0;exitX=1;exitY=0.5;exitDx=0;exitDy=0;entryX=0;entryY=0.3333333333333333;entryDx=0;entryDy=0;entryPerimeter=0;" parent="1" source="OZ5fW6hErYmCuCrI8Dng-50" target="OZ5fW6hErYmCuCrI8Dng-1" edge="1">
          <mxGeometry width="50" height="50" relative="1" as="geometry">
            <mxPoint x="-90" y="770" as="sourcePoint" />
            <mxPoint x="130.00000000000023" y="600" as="targetPoint" />
          </mxGeometry>
        </mxCell>
        <mxCell id="OZ5fW6hErYmCuCrI8Dng-55" value="Change user info" style="ellipse;whiteSpace=wrap;html=1;" parent="1" vertex="1">
          <mxGeometry x="-200" y="920" width="120" height="80" as="geometry" />
        </mxCell>
        <mxCell id="OZ5fW6hErYmCuCrI8Dng-56" value="" style="endArrow=none;html=1;rounded=0;exitX=1;exitY=0.5;exitDx=0;exitDy=0;entryX=0;entryY=0.3333333333333333;entryDx=0;entryDy=0;entryPerimeter=0;" parent="1" source="OZ5fW6hErYmCuCrI8Dng-55" target="OZ5fW6hErYmCuCrI8Dng-1" edge="1">
          <mxGeometry width="50" height="50" relative="1" as="geometry">
            <mxPoint x="30" y="1040" as="sourcePoint" />
            <mxPoint x="130.00000000000023" y="600" as="targetPoint" />
          </mxGeometry>
        </mxCell>
        <mxCell id="OZ5fW6hErYmCuCrI8Dng-60" value="Change UI language" style="ellipse;whiteSpace=wrap;html=1;" parent="1" vertex="1">
          <mxGeometry x="110" y="930" width="120" height="80" as="geometry" />
        </mxCell>
        <mxCell id="OZ5fW6hErYmCuCrI8Dng-61" value="" style="endArrow=none;html=1;rounded=0;entryX=1;entryY=0.3333333333333333;entryDx=0;entryDy=0;entryPerimeter=0;exitX=0.5;exitY=0;exitDx=0;exitDy=0;" parent="1" source="OZ5fW6hErYmCuCrI8Dng-15" target="OZ5fW6hErYmCuCrI8Dng-1" edge="1">
          <mxGeometry width="50" height="50" relative="1" as="geometry">
            <mxPoint x="-70" y="970" as="sourcePoint" />
            <mxPoint x="130" y="560" as="targetPoint" />
          </mxGeometry>
        </mxCell>
        <mxCell id="OZ5fW6hErYmCuCrI8Dng-62" value="Settings" style="text;html=1;align=center;verticalAlign=middle;whiteSpace=wrap;rounded=0;" parent="1" vertex="1">
          <mxGeometry x="530" y="730" width="90" height="30" as="geometry" />
        </mxCell>
        <mxCell id="OZ5fW6hErYmCuCrI8Dng-63" value="Change UI Theme" style="ellipse;whiteSpace=wrap;html=1;" parent="1" vertex="1">
          <mxGeometry x="240" y="1000" width="120" height="80" as="geometry" />
        </mxCell>
        <mxCell id="OZ5fW6hErYmCuCrI8Dng-64" value="" style="endArrow=none;html=1;rounded=0;dashed=1;entryX=0.5;entryY=1;entryDx=0;entryDy=0;exitX=0.5;exitY=0;exitDx=0;exitDy=0;endFill=0;startArrow=classic;startFill=1;" parent="1" source="OZ5fW6hErYmCuCrI8Dng-63" target="OZ5fW6hErYmCuCrI8Dng-15" edge="1">
          <mxGeometry width="50" height="50" relative="1" as="geometry">
            <mxPoint x="110" y="1140" as="sourcePoint" />
            <mxPoint x="158" y="1068" as="targetPoint" />
            <Array as="points" />
          </mxGeometry>
        </mxCell>
        <mxCell id="OZ5fW6hErYmCuCrI8Dng-65" value="&lt;span style=&quot;font-size: 11px;&quot;&gt;&amp;lt;&amp;lt;Includes&amp;gt;&amp;gt;&lt;/span&gt;" style="edgeLabel;html=1;align=center;verticalAlign=middle;resizable=0;points=[];fontSize=11;" parent="OZ5fW6hErYmCuCrI8Dng-64" vertex="1" connectable="0">
          <mxGeometry x="-0.0333" y="3" relative="1" as="geometry">
            <mxPoint as="offset" />
          </mxGeometry>
        </mxCell>
        <mxCell id="OZ5fW6hErYmCuCrI8Dng-66" value="30 Day Forecast" style="ellipse;whiteSpace=wrap;html=1;" parent="1" vertex="1">
          <mxGeometry x="-460" y="570" width="120" height="80" as="geometry" />
        </mxCell>
        <mxCell id="OZ5fW6hErYmCuCrI8Dng-67" value="" style="endArrow=classic;html=1;rounded=0;dashed=1;exitX=0.5;exitY=0;exitDx=0;exitDy=0;entryX=0.5;entryY=1;entryDx=0;entryDy=0;" parent="1" source="OZ5fW6hErYmCuCrI8Dng-66" target="OZ5fW6hErYmCuCrI8Dng-10" edge="1">
          <mxGeometry width="50" height="50" relative="1" as="geometry">
            <mxPoint x="-280" y="460" as="sourcePoint" />
            <mxPoint x="-378" y="358" as="targetPoint" />
            <Array as="points" />
          </mxGeometry>
        </mxCell>
        <mxCell id="OZ5fW6hErYmCuCrI8Dng-68" value="&lt;span style=&quot;font-size: 11px;&quot;&gt;&amp;lt;&amp;lt;Extend&amp;gt;&amp;gt;&lt;/span&gt;" style="edgeLabel;html=1;align=center;verticalAlign=middle;resizable=0;points=[];fontSize=11;" parent="OZ5fW6hErYmCuCrI8Dng-67" vertex="1" connectable="0">
          <mxGeometry x="-0.2167" y="-4" relative="1" as="geometry">
            <mxPoint y="-1" as="offset" />
          </mxGeometry>
        </mxCell>
        <mxCell id="OZ5fW6hErYmCuCrI8Dng-70" value="Load weather from service" style="ellipse;whiteSpace=wrap;html=1;" parent="1" vertex="1">
          <mxGeometry x="-610" y="280" width="120" height="80" as="geometry" />
        </mxCell>
        <mxCell id="OZ5fW6hErYmCuCrI8Dng-71" value="" style="endArrow=none;html=1;rounded=0;dashed=1;exitX=1;exitY=1;exitDx=0;exitDy=0;startArrow=classic;startFill=1;endFill=0;entryX=0;entryY=0;entryDx=0;entryDy=0;" parent="1" source="OZ5fW6hErYmCuCrI8Dng-70" target="OZ5fW6hErYmCuCrI8Dng-10" edge="1">
          <mxGeometry width="50" height="50" relative="1" as="geometry">
            <mxPoint x="-400" y="242" as="sourcePoint" />
            <mxPoint x="-500" y="320" as="targetPoint" />
            <Array as="points" />
          </mxGeometry>
        </mxCell>
        <mxCell id="OZ5fW6hErYmCuCrI8Dng-72" value="&lt;span style=&quot;font-size: 11px;&quot;&gt;&amp;lt;&amp;lt;Includes&amp;gt;&amp;gt;&lt;/span&gt;" style="edgeLabel;html=1;align=center;verticalAlign=middle;resizable=0;points=[];fontSize=11;" parent="OZ5fW6hErYmCuCrI8Dng-71" vertex="1" connectable="0">
          <mxGeometry x="-0.0333" y="3" relative="1" as="geometry">
            <mxPoint as="offset" />
          </mxGeometry>
        </mxCell>
        <mxCell id="OZ5fW6hErYmCuCrI8Dng-73" value="" style="endArrow=classic;html=1;rounded=0;dashed=1;exitX=1;exitY=0.5;exitDx=0;exitDy=0;entryX=0;entryY=0.5;entryDx=0;entryDy=0;" parent="1" source="OZ5fW6hErYmCuCrI8Dng-46" target="OZ5fW6hErYmCuCrI8Dng-49" edge="1">
          <mxGeometry width="50" height="50" relative="1" as="geometry">
            <mxPoint x="-562" y="880" as="sourcePoint" />
            <mxPoint x="-670" y="778" as="targetPoint" />
            <Array as="points" />
          </mxGeometry>
        </mxCell>
        <mxCell id="OZ5fW6hErYmCuCrI8Dng-74" value="&lt;span style=&quot;font-size: 11px;&quot;&gt;&amp;lt;&amp;lt;Extend&amp;gt;&amp;gt;&lt;/span&gt;" style="edgeLabel;html=1;align=center;verticalAlign=middle;resizable=0;points=[];fontSize=11;" parent="OZ5fW6hErYmCuCrI8Dng-73" vertex="1" connectable="0">
          <mxGeometry x="-0.2167" y="-4" relative="1" as="geometry">
            <mxPoint y="-1" as="offset" />
          </mxGeometry>
        </mxCell>
        <mxCell id="OZ5fW6hErYmCuCrI8Dng-75" value="Search weather by image" style="ellipse;whiteSpace=wrap;html=1;" parent="1" vertex="1">
          <mxGeometry x="-510" y="150" width="120" height="80" as="geometry" />
        </mxCell>
        <mxCell id="OZ5fW6hErYmCuCrI8Dng-76" value="Load user settings" style="ellipse;whiteSpace=wrap;html=1;" parent="1" vertex="1">
          <mxGeometry x="410" y="960" width="120" height="80" as="geometry" />
        </mxCell>
        <mxCell id="OZ5fW6hErYmCuCrI8Dng-77" value="Save user settings" style="ellipse;whiteSpace=wrap;html=1;" parent="1" vertex="1">
          <mxGeometry x="490" y="850" width="120" height="80" as="geometry" />
        </mxCell>
        <mxCell id="OZ5fW6hErYmCuCrI8Dng-79" value="" style="endArrow=none;html=1;rounded=0;dashed=1;entryX=1;entryY=1;entryDx=0;entryDy=0;exitX=0;exitY=0;exitDx=0;exitDy=0;endFill=0;startArrow=classic;startFill=1;" parent="1" source="OZ5fW6hErYmCuCrI8Dng-76" target="OZ5fW6hErYmCuCrI8Dng-15" edge="1">
          <mxGeometry width="50" height="50" relative="1" as="geometry">
            <mxPoint x="310" y="900" as="sourcePoint" />
            <mxPoint x="322" y="828" as="targetPoint" />
            <Array as="points" />
          </mxGeometry>
        </mxCell>
        <mxCell id="OZ5fW6hErYmCuCrI8Dng-80" value="&lt;span style=&quot;font-size: 11px;&quot;&gt;&amp;lt;&amp;lt;Includes&amp;gt;&amp;gt;&lt;/span&gt;" style="edgeLabel;html=1;align=center;verticalAlign=middle;resizable=0;points=[];fontSize=11;" parent="OZ5fW6hErYmCuCrI8Dng-79" vertex="1" connectable="0">
          <mxGeometry x="-0.0333" y="3" relative="1" as="geometry">
            <mxPoint as="offset" />
          </mxGeometry>
        </mxCell>
        <mxCell id="OZ5fW6hErYmCuCrI8Dng-81" value="" style="endArrow=none;html=1;rounded=0;dashed=1;entryX=1;entryY=0.5;entryDx=0;entryDy=0;exitX=0;exitY=0.5;exitDx=0;exitDy=0;endFill=0;startArrow=classic;startFill=1;" parent="1" source="OZ5fW6hErYmCuCrI8Dng-77" target="OZ5fW6hErYmCuCrI8Dng-15" edge="1">
          <mxGeometry width="50" height="50" relative="1" as="geometry">
            <mxPoint x="320" y="910" as="sourcePoint" />
            <mxPoint x="332" y="838" as="targetPoint" />
            <Array as="points" />
          </mxGeometry>
        </mxCell>
        <mxCell id="OZ5fW6hErYmCuCrI8Dng-82" value="&lt;span style=&quot;font-size: 11px;&quot;&gt;&amp;lt;&amp;lt;Includes&amp;gt;&amp;gt;&lt;/span&gt;" style="edgeLabel;html=1;align=center;verticalAlign=middle;resizable=0;points=[];fontSize=11;" parent="OZ5fW6hErYmCuCrI8Dng-81" vertex="1" connectable="0">
          <mxGeometry x="-0.0333" y="3" relative="1" as="geometry">
            <mxPoint as="offset" />
          </mxGeometry>
        </mxCell>
        <mxCell id="OZ5fW6hErYmCuCrI8Dng-83" value="" style="endArrow=none;html=1;rounded=0;dashed=1;entryX=0.746;entryY=0.955;entryDx=0;entryDy=0;exitX=0.5;exitY=0;exitDx=0;exitDy=0;endFill=0;startArrow=classic;startFill=1;entryPerimeter=0;" parent="1" source="OZ5fW6hErYmCuCrI8Dng-3" target="OZ5fW6hErYmCuCrI8Dng-15" edge="1">
          <mxGeometry width="50" height="50" relative="1" as="geometry">
            <mxPoint x="438" y="982" as="sourcePoint" />
            <mxPoint x="322" y="828" as="targetPoint" />
            <Array as="points" />
          </mxGeometry>
        </mxCell>
        <mxCell id="OZ5fW6hErYmCuCrI8Dng-84" value="&lt;span style=&quot;font-size: 11px;&quot;&gt;&amp;lt;&amp;lt;Includes&amp;gt;&amp;gt;&lt;/span&gt;" style="edgeLabel;html=1;align=center;verticalAlign=middle;resizable=0;points=[];fontSize=11;" parent="OZ5fW6hErYmCuCrI8Dng-83" vertex="1" connectable="0">
          <mxGeometry x="-0.0333" y="3" relative="1" as="geometry">
            <mxPoint as="offset" />
          </mxGeometry>
        </mxCell>
        <mxCell id="OZ5fW6hErYmCuCrI8Dng-85" value="Get favourites location" style="ellipse;whiteSpace=wrap;html=1;" parent="1" vertex="1">
          <mxGeometry x="-190" y="40" width="120" height="80" as="geometry" />
        </mxCell>
        <mxCell id="OZ5fW6hErYmCuCrI8Dng-86" value="" style="endArrow=classic;html=1;rounded=0;dashed=1;exitX=1;exitY=0.5;exitDx=0;exitDy=0;entryX=0;entryY=0.5;entryDx=0;entryDy=0;" parent="1" source="OZ5fW6hErYmCuCrI8Dng-5" target="OZ5fW6hErYmCuCrI8Dng-85" edge="1">
          <mxGeometry width="50" height="50" relative="1" as="geometry">
            <mxPoint x="-280" y="460" as="sourcePoint" />
            <mxPoint x="-388" y="358" as="targetPoint" />
            <Array as="points" />
          </mxGeometry>
        </mxCell>
        <mxCell id="OZ5fW6hErYmCuCrI8Dng-87" value="&lt;span style=&quot;font-size: 11px;&quot;&gt;&amp;lt;&amp;lt;Extend&amp;gt;&amp;gt;&lt;/span&gt;" style="edgeLabel;html=1;align=center;verticalAlign=middle;resizable=0;points=[];fontSize=11;" parent="OZ5fW6hErYmCuCrI8Dng-86" vertex="1" connectable="0">
          <mxGeometry x="-0.2167" y="-4" relative="1" as="geometry">
            <mxPoint y="-1" as="offset" />
          </mxGeometry>
        </mxCell>
        <mxCell id="OZ5fW6hErYmCuCrI8Dng-88" value="" style="endArrow=classic;html=1;rounded=0;dashed=1;exitX=0.5;exitY=0;exitDx=0;exitDy=0;entryX=0.5;entryY=1;entryDx=0;entryDy=0;" parent="1" source="OZ5fW6hErYmCuCrI8Dng-6" target="OZ5fW6hErYmCuCrI8Dng-85" edge="1">
          <mxGeometry width="50" height="50" relative="1" as="geometry">
            <mxPoint x="-220" y="110" as="sourcePoint" />
            <mxPoint x="-160" y="110" as="targetPoint" />
            <Array as="points" />
          </mxGeometry>
        </mxCell>
        <mxCell id="OZ5fW6hErYmCuCrI8Dng-89" value="&lt;span style=&quot;font-size: 11px;&quot;&gt;&amp;lt;&amp;lt;Extend&amp;gt;&amp;gt;&lt;/span&gt;" style="edgeLabel;html=1;align=center;verticalAlign=middle;resizable=0;points=[];fontSize=11;" parent="OZ5fW6hErYmCuCrI8Dng-88" vertex="1" connectable="0">
          <mxGeometry x="-0.2167" y="-4" relative="1" as="geometry">
            <mxPoint y="-1" as="offset" />
          </mxGeometry>
        </mxCell>
        <mxCell id="OZ5fW6hErYmCuCrI8Dng-90" value="" style="endArrow=none;html=1;rounded=0;exitX=0;exitY=0.3333333333333333;exitDx=0;exitDy=0;exitPerimeter=0;entryX=1;entryY=0.5;entryDx=0;entryDy=0;endFill=0;" parent="1" source="OZ5fW6hErYmCuCrI8Dng-1" target="OZ5fW6hErYmCuCrI8Dng-85" edge="1">
          <mxGeometry width="50" height="50" relative="1" as="geometry">
            <mxPoint x="150" y="510" as="sourcePoint" />
            <mxPoint x="-370" y="330" as="targetPoint" />
          </mxGeometry>
        </mxCell>
        <mxCell id="OZ5fW6hErYmCuCrI8Dng-91" value="Recognize weather by TensorFlow Lite" style="ellipse;whiteSpace=wrap;html=1;" parent="1" vertex="1">
          <mxGeometry x="-630" y="40" width="120" height="80" as="geometry" />
        </mxCell>
        <mxCell id="OZ5fW6hErYmCuCrI8Dng-92" value="" style="endArrow=none;html=1;rounded=0;dashed=1;exitX=0.781;exitY=0.882;exitDx=0;exitDy=0;startArrow=classic;startFill=1;endFill=0;entryX=0;entryY=0;entryDx=0;entryDy=0;exitPerimeter=0;" parent="1" source="OZ5fW6hErYmCuCrI8Dng-91" target="OZ5fW6hErYmCuCrI8Dng-75" edge="1">
          <mxGeometry width="50" height="50" relative="1" as="geometry">
            <mxPoint x="-498" y="358" as="sourcePoint" />
            <mxPoint x="-452" y="402" as="targetPoint" />
            <Array as="points" />
          </mxGeometry>
        </mxCell>
        <mxCell id="OZ5fW6hErYmCuCrI8Dng-93" value="&lt;span style=&quot;font-size: 11px;&quot;&gt;&amp;lt;&amp;lt;Includes&amp;gt;&amp;gt;&lt;/span&gt;" style="edgeLabel;html=1;align=center;verticalAlign=middle;resizable=0;points=[];fontSize=11;" parent="OZ5fW6hErYmCuCrI8Dng-92" vertex="1" connectable="0">
          <mxGeometry x="-0.0333" y="3" relative="1" as="geometry">
            <mxPoint as="offset" />
          </mxGeometry>
        </mxCell>
        <mxCell id="OZ5fW6hErYmCuCrI8Dng-94" value="" style="endArrow=classic;html=1;rounded=0;dashed=1;exitX=1;exitY=0;exitDx=0;exitDy=0;entryX=0;entryY=1;entryDx=0;entryDy=0;" parent="1" source="OZ5fW6hErYmCuCrI8Dng-10" target="OZ5fW6hErYmCuCrI8Dng-7" edge="1">
          <mxGeometry width="50" height="50" relative="1" as="geometry">
            <mxPoint x="-290" y="515" as="sourcePoint" />
            <mxPoint x="-368" y="458" as="targetPoint" />
            <Array as="points" />
          </mxGeometry>
        </mxCell>
        <mxCell id="OZ5fW6hErYmCuCrI8Dng-95" value="&lt;span style=&quot;font-size: 11px;&quot;&gt;&amp;lt;&amp;lt;Extend&amp;gt;&amp;gt;&lt;/span&gt;" style="edgeLabel;html=1;align=center;verticalAlign=middle;resizable=0;points=[];fontSize=11;" parent="OZ5fW6hErYmCuCrI8Dng-94" vertex="1" connectable="0">
          <mxGeometry x="-0.2167" y="-4" relative="1" as="geometry">
            <mxPoint y="-1" as="offset" />
          </mxGeometry>
        </mxCell>
        <mxCell id="OZ5fW6hErYmCuCrI8Dng-96" value="" style="endArrow=none;html=1;rounded=0;entryX=1;entryY=0.5;entryDx=0;entryDy=0;endFill=0;exitX=0;exitY=0.3333333333333333;exitDx=0;exitDy=0;exitPerimeter=0;" parent="1" source="OZ5fW6hErYmCuCrI8Dng-1" target="OZ5fW6hErYmCuCrI8Dng-75" edge="1">
          <mxGeometry width="50" height="50" relative="1" as="geometry">
            <mxPoint x="160" y="450" as="sourcePoint" />
            <mxPoint x="-60" y="90" as="targetPoint" />
          </mxGeometry>
        </mxCell>
        <mxCell id="OZ5fW6hErYmCuCrI8Dng-97" value="System" style="text;html=1;align=center;verticalAlign=middle;whiteSpace=wrap;rounded=0;" parent="1" vertex="1">
          <mxGeometry x="-100" y="624.5" width="90" height="30" as="geometry" />
        </mxCell>
        <mxCell id="0P3grilKNkKzjPYkAv3P-4" value="" style="rounded=0;whiteSpace=wrap;html=1;fillColor=none;" parent="1" vertex="1">
          <mxGeometry x="-480" y="1580" width="600" height="170" as="geometry" />
        </mxCell>
        <mxCell id="0P3grilKNkKzjPYkAv3P-5" value="" style="rounded=0;whiteSpace=wrap;html=1;fillColor=none;" parent="1" vertex="1">
          <mxGeometry x="-480" y="1370" width="600" height="170" as="geometry" />
        </mxCell>
        <mxCell id="0P3grilKNkKzjPYkAv3P-6" value="" style="rounded=0;whiteSpace=wrap;html=1;fillColor=none;" parent="1" vertex="1">
          <mxGeometry x="100" y="710" width="520" height="470" as="geometry" />
        </mxCell>
        <mxCell id="0P3grilKNkKzjPYkAv3P-8" value="" style="rounded=0;whiteSpace=wrap;html=1;fillColor=none;" parent="1" vertex="1">
          <mxGeometry x="-650" y="30" width="640" height="630" as="geometry" />
        </mxCell>
        <mxCell id="0P3grilKNkKzjPYkAv3P-11" value="&#xa;Presentation&#xa;&#xa;" style="text;html=1;align=center;verticalAlign=middle;whiteSpace=wrap;rounded=0;" parent="1" vertex="1">
          <mxGeometry x="-480" y="1940" width="80" height="30" as="geometry" />
        </mxCell>
        <mxCell id="0P3grilKNkKzjPYkAv3P-12" value="Domain" style="text;html=1;align=center;verticalAlign=middle;whiteSpace=wrap;rounded=0;" parent="1" vertex="1">
          <mxGeometry x="-490" y="1720" width="80" height="30" as="geometry" />
        </mxCell>
        <mxCell id="0P3grilKNkKzjPYkAv3P-13" value="Data" style="text;html=1;align=center;verticalAlign=middle;whiteSpace=wrap;rounded=0;" parent="1" vertex="1">
          <mxGeometry x="-494" y="1510" width="80" height="30" as="geometry" />
        </mxCell>
        <mxCell id="0P3grilKNkKzjPYkAv3P-15" value="Home" style="rounded=0;whiteSpace=wrap;html=1;rotation=-90;textDirection=vertical-lr;" parent="1" vertex="1">
          <mxGeometry x="-450" y="1845" width="120" height="60" as="geometry" />
        </mxCell>
        <mxCell id="0P3grilKNkKzjPYkAv3P-16" value="Settings" style="rounded=0;whiteSpace=wrap;html=1;rotation=-90;textDirection=vertical-lr;" parent="1" vertex="1">
          <mxGeometry x="-270" y="1845" width="120" height="60" as="geometry" />
        </mxCell>
        <mxCell id="0P3grilKNkKzjPYkAv3P-17" value="Account" style="rounded=0;whiteSpace=wrap;html=1;rotation=-90;textDirection=vertical-lr;" parent="1" vertex="1">
          <mxGeometry x="-80" y="1845" width="120" height="60" as="geometry" />
        </mxCell>
        <mxCell id="0P3grilKNkKzjPYkAv3P-18" value="Get Weather Forecast" style="ellipse;whiteSpace=wrap;html=1;" parent="1" vertex="1">
          <mxGeometry x="-470" y="1650" width="90" height="55" as="geometry" />
        </mxCell>
        <mxCell id="0P3grilKNkKzjPYkAv3P-19" value="" style="endArrow=classic;html=1;rounded=0;exitX=1;exitY=0.5;exitDx=0;exitDy=0;entryX=0.5;entryY=1;entryDx=0;entryDy=0;" parent="1" source="0P3grilKNkKzjPYkAv3P-15" target="0P3grilKNkKzjPYkAv3P-18" edge="1">
          <mxGeometry width="50" height="50" relative="1" as="geometry">
            <mxPoint x="-300" y="1690" as="sourcePoint" />
            <mxPoint x="-250" y="1640" as="targetPoint" />
          </mxGeometry>
        </mxCell>
        <mxCell id="0P3grilKNkKzjPYkAv3P-20" value="Settings" style="ellipse;whiteSpace=wrap;html=1;" parent="1" vertex="1">
          <mxGeometry x="-255" y="1650" width="90" height="55" as="geometry" />
        </mxCell>
        <mxCell id="0P3grilKNkKzjPYkAv3P-22" value="Authentication" style="ellipse;whiteSpace=wrap;html=1;" parent="1" vertex="1">
          <mxGeometry x="-65" y="1650" width="90" height="55" as="geometry" />
        </mxCell>
        <mxCell id="0P3grilKNkKzjPYkAv3P-24" value="" style="endArrow=classic;html=1;rounded=0;exitX=1;exitY=0.5;exitDx=0;exitDy=0;entryX=0.5;entryY=1;entryDx=0;entryDy=0;" parent="1" source="0P3grilKNkKzjPYkAv3P-17" target="0P3grilKNkKzjPYkAv3P-22" edge="1">
          <mxGeometry width="50" height="50" relative="1" as="geometry">
            <mxPoint x="-210" y="1825" as="sourcePoint" />
            <mxPoint x="-240" y="1703" as="targetPoint" />
          </mxGeometry>
        </mxCell>
        <mxCell id="0P3grilKNkKzjPYkAv3P-25" value="" style="endArrow=classic;html=1;rounded=0;exitX=1;exitY=0.5;exitDx=0;exitDy=0;entryX=0.5;entryY=1;entryDx=0;entryDy=0;" parent="1" source="0P3grilKNkKzjPYkAv3P-16" target="0P3grilKNkKzjPYkAv3P-20" edge="1">
          <mxGeometry width="50" height="50" relative="1" as="geometry">
            <mxPoint x="-220" y="1690" as="sourcePoint" />
            <mxPoint x="-170" y="1640" as="targetPoint" />
          </mxGeometry>
        </mxCell>
        <mxCell id="0P3grilKNkKzjPYkAv3P-28" value="" style="endArrow=classic;html=1;rounded=0;exitX=0;exitY=0.5;exitDx=0;exitDy=0;entryX=0;entryY=0.5;entryDx=0;entryDy=0;" parent="1" source="0P3grilKNkKzjPYkAv3P-5" target="0P3grilKNkKzjPYkAv3P-3" edge="1">
          <mxGeometry width="50" height="50" relative="1" as="geometry">
            <mxPoint x="-300" y="1720" as="sourcePoint" />
            <mxPoint x="-250" y="1670" as="targetPoint" />
            <Array as="points">
              <mxPoint x="-510" y="1455" />
              <mxPoint x="-510" y="1875" />
            </Array>
          </mxGeometry>
        </mxCell>
        <mxCell id="0P3grilKNkKzjPYkAv3P-29" value="" style="endArrow=classic;html=1;rounded=0;entryX=1;entryY=0.5;entryDx=0;entryDy=0;exitX=1;exitY=0.75;exitDx=0;exitDy=0;" parent="1" source="0P3grilKNkKzjPYkAv3P-4" target="0P3grilKNkKzjPYkAv3P-3" edge="1">
          <mxGeometry width="50" height="50" relative="1" as="geometry">
            <mxPoint x="160" y="1495" as="sourcePoint" />
            <mxPoint x="170" y="1915" as="targetPoint" />
            <Array as="points">
              <mxPoint x="150" y="1708" />
              <mxPoint x="150" y="1875" />
            </Array>
          </mxGeometry>
        </mxCell>
        <mxCell id="0P3grilKNkKzjPYkAv3P-30" value="" style="endArrow=none;html=1;rounded=0;entryX=1;entryY=0.25;entryDx=0;entryDy=0;exitX=1;exitY=0.5;exitDx=0;exitDy=0;startArrow=classic;startFill=1;endFill=0;" parent="1" source="0P3grilKNkKzjPYkAv3P-5" target="0P3grilKNkKzjPYkAv3P-4" edge="1">
          <mxGeometry width="50" height="50" relative="1" as="geometry">
            <mxPoint x="140" y="1470" as="sourcePoint" />
            <mxPoint x="140" y="1637" as="targetPoint" />
            <Array as="points">
              <mxPoint x="150" y="1455" />
              <mxPoint x="150" y="1623" />
            </Array>
          </mxGeometry>
        </mxCell>
        <mxCell id="0P3grilKNkKzjPYkAv3P-31" value="&#xa;&lt;span style=&quot;color: rgb(240, 240, 240); font-family: Helvetica; font-size: 12px; font-style: normal; font-variant-ligatures: normal; font-variant-caps: normal; font-weight: 400; letter-spacing: normal; orphans: 2; text-align: center; text-indent: 0px; text-transform: none; widows: 2; word-spacing: 0px; -webkit-text-stroke-width: 0px; white-space: normal; background-color: rgb(27, 29, 30); text-decoration-thickness: initial; text-decoration-style: initial; text-decoration-color: initial; display: inline !important; float: none;&quot;&gt;Weather Data Repository&lt;/span&gt;&#xa;&#xa;" style="rounded=0;whiteSpace=wrap;html=1;" parent="1" vertex="1">
          <mxGeometry x="-450" y="1432.5" width="130" height="45" as="geometry" />
        </mxCell>
        <mxCell id="0P3grilKNkKzjPYkAv3P-32" value="User Data Repository" style="rounded=0;whiteSpace=wrap;html=1;" parent="1" vertex="1">
          <mxGeometry x="-40" y="1440" width="120" height="45" as="geometry" />
        </mxCell>
        <mxCell id="0P3grilKNkKzjPYkAv3P-34" value="Weather by TensorFlow Lite" style="ellipse;whiteSpace=wrap;html=1;" parent="1" vertex="1">
          <mxGeometry x="-370" y="1595" width="90" height="55" as="geometry" />
        </mxCell>
        <mxCell id="0P3grilKNkKzjPYkAv3P-35" value="" style="endArrow=classic;html=1;rounded=0;entryX=0;entryY=0.5;entryDx=0;entryDy=0;exitX=1;exitY=0;exitDx=0;exitDy=0;" parent="1" source="0P3grilKNkKzjPYkAv3P-18" target="0P3grilKNkKzjPYkAv3P-34" edge="1">
          <mxGeometry width="50" height="50" relative="1" as="geometry">
            <mxPoint x="-310" y="1770" as="sourcePoint" />
            <mxPoint x="-415" y="1715" as="targetPoint" />
          </mxGeometry>
        </mxCell>
      </root>
    </mxGraphModel>
  </diagram>
</mxfile>
